<svg xmlns="http://www.w3.org/2000/svg" viewBox="0 0 140 140">
<!-- SVG created with Arrow, by QuiverAI (https://quiver.ai) -->
  <style type="text/css">.cls-0 {fill:#C9E7EA;}
.cls-1 {fill:#78916D;}
.cls-2 {fill:#FFFFFF;}
.cls-3 {fill:#9ABDCB;}
.cls-4 {fill:#4A6978;}
.cls-5 {fill:#8CB5C4;}
.cls-6 {fill:#594A42;}</style>
  <path class="cls-0" d="m139.6 63.7c-2.1-35.5-30.2-63.4-69.4-63.4-36.1 0-65.8 25.8-69.9 58.4l-0.1 15.1 1.7 11.3 136.5-1.1 1.2-10.2v-10.1z"/>
  <path class="cls-1" d="m131 34.5c-1-1.4-2.1-4.9-3.4-5.5-7.7-9.9-22.5-26.7-47.4-28.6-9.3-0.7-18.6-0.7-29.4 2.1 2.3 2.1 4.7 4 7.3 5.2-2.3 2.8-6.6 2.9-6.7 3.7-0.8 3.5 5.5 3 6.8 4.1 1.3 1.2 0.4 1.9 2.4 2.5-0.8 1.5-5.7 3.3-8.6 4.8l1.2 5.7c2.8 1.5 6 2.5 9.8 2.8 1 0.1 0.3 2.4 2.3 3.2 2.4 1 2.8 1.1 2.7 2.6-0.2 3.3-1 5.6 2.2 5.8 1.3 0.1 4.9-0.8 7.5-0.9 2.1-0.1 1.6-5 3.8-5.7 0.9-1.1-0.7-3-1.5-2.9-1.1-3.1 0-5.7 4.7-7.4 1.2-0.4 0-3.6 1.5-3.7s4.6-0.4 4.3 0.9c-0.7 3.7-3.6 3.5-2.9 6.8 0.7 3.1 4.4 0.6 4.1 6.9-0.2 3.7 5 5.4 7.1 3l1.4-2.5c3.4-0.6 4.7-1.7 4.8-7.1 0.5-1.8 5.8-0.7 6.5-1.3 1.9-1.4 1.7-4 7.1-2.9 4.3 0.9 4.5 1.1 3.5 2.4s-5.9 2.5-7.7 2.2c-3 2.1-1.3 3.8 2.6 3.4 2.4-0.2 7.7-2.7 10.6-5.1l3.4 5.5z"/>
  <path class="cls-1" d="m24.1 16.5c-9.6 7.4-18.6 19.7-21.5 35.1 2.8 0.4 3.3-2.4 4.7-2.2 3.3 0.1 3.3 2.8 5.7 2.6 2.9-0.3-0.1-3.9 4.4-4.6 1.1 0 1.5 1.6 1.6 2 0.1 1.2-1.4 5.6-2 5.8-2.1 0.8-4.9-0.6-4.9 2.4 0 3.9-7.7 3.4-7.3 7.5 0.3 0.9 7.2-0.6 12.1 1.5 1.2 0 2.7-0.4 3.3-1.6 1-2 5.4-3.3 8.4-4.1 0.4 1 1.5-4.8 1.4-6.5-0.1-1.9-1.9-7.5-2.6-8.8-0.8-1.2-5.9-6.9-5.7-8 0.8-2.6 4.4-2.6 5.2-5 0.5-1.7-3.8-2.7-4.2-4.1-0.6-2.8 2.8-7.1 2.2-8.8l-0.8-3.2z"/>
  <path class="cls-2" d="m23.2 36.1c-1.1 0.9-1.6 1.8-1.3 2.3 1 2 3.5 5 5.5 7.7l2.7 8.1-0.5 5.4c1.9-0.4 5.5-0.9 7.4-0.6l-0.6-2.9-4.7-18.5c-3.7 0.8-6.3-0.1-8.5-1.5z"/>
  <path class="cls-2" d="m36.9 36.4 7.1 23.6 5.5-2 2.6 0.5-5.7-26c-2.5 1.5-6 1.9-9.5 3.9z"/>
  <path class="cls-2" d="m53.4 35.7 2.7 13.8 3.8 10.4 4.1-2.5c1.4-3.7 4.1-5.9 7.4-6.2l14.7 0.3 2.8-9.8v-4.3l-6.8-1-2 0.6-2 5.1-8 0.8-2.2-0.3v-6c-4 0.4-9.1-1.1-14.5-0.9z"/>
  <path class="cls-2" d="m3.1 51.6 1 6.5 8.3 0.6-0.3-2.3 4.9-1.3 1.6-5-1.2-2.7c-4.3 0.2-2.7 3.1-4.4 4.6-1.4 0.5-2.9-2-4.4-2.4l-2-0.2-2 1.5-1.5 0.7z"/>
  <path class="cls-2" d="m114.1 30.4c-1 0.5-2.2 3.6 0.9 3.7 4.2 0.3 8.9-2.1 12.5-5.1l2.9 4.2c-3.9 0-13.8 3.9-19.5 3.9-2.3 0-5.4-1-7.4-0.7l1.4-2.7 0.2-4.1 6.3-0.6 2.1-2.3 2.5-1.1 6.1 1.4 0.4 1c-1.4 1.5-4.9 2.4-8.4 2.4z"/>
  <path class="cls-0" d="m27.6 13.7c0.5 8.2 2 18.2 3.4 23.9-2.1 0.3-5.4 0.3-7.9-1.5 1.4-0.9 4-2.1 3.8-3.9-0.5-1.7-3.9-2.3-4.2-3.7-0.3-2.6 2.7-7.1 2.2-8.8l-0.8-3.2 3.5-2.8z"/>
  <path class="cls-0" d="m32.4 10.4 3.6 26 10.4-3.7-4.8-27.1c-2.7 1-6.4 3-9.2 4.8z"/>
  <path class="cls-0" d="m47.9 3.4 4.1 19.5 8.6-4.9-1.9-2.8-4.6-0.8-2.7-1.8 0.2-1.5 3.8-1.2 2.7-2-3-1.8-4.1-3.6-3.1 0.9z"/>
  <path class="cls-0" d="m53.1 28.5 0.9 7.2 13.9 0.8-0.4-1.5-3.5-1.1-1-2.7c-3.6-0.1-7.4-1.5-9.9-2.7z"/>
  <path class="cls-0" d="m80 33.4c-1.4-4 0.5-5.8 4.7-7.5l1.2-3.7 4.5 0.3c0 2.6-3.4 4.5-2.9 6.5 0.9 3.7 4.5 1.5 4.2 7.9l-0.8 1-7.2-1.5h-2.2c0.6-0.9-0.4-2.8-1.5-3z"/>
  <path class="cls-0" d="m88.9 37.4-2.8 14.1-0.6 0.5 6.1-1.1 4.9-3.3 3.1-2.1 7.5 2.1 8.5 0.5 4.3-1.5 2.6-5.6 1.9-3.4 5.5-3 0.5-0.5-3.9-0.7-14 3.7h-4l-5-0.7-3.4 1.2-1.2 2.3-3 1-3.5-1.5-0.8-1.5v-4l-1.2-1.7-2.7-0.8 1.2 6z"/>
  <path class="cls-1" d="m131 34.5-4.3 1.9c-5.6 1.7-4.7 6.8-7.1 9.6-2.1 2.5-7.1 2.4-11.5 2.1l-5.2-2.1c-3.4-1.4-6.3 0-7.9 2.1-3.9 2.9-7.1 1.8-12.4 8.8-2.2 3.6 4 3 6.5 4.7 4.3 0.9 14.4-4.5 17.3-3.7 1.7 0.5 2.2 1.7 1.1 2l-7.9 0.6-3 3.7-1.2 3.5 0.7 0.9 11.9-0.6c2.1 0 4.6-4.4 3.4-5.6-2.3-2 1.7-3 2-4.8 2.2-0.6 2.6 1.1 6.1 1 2.6-1-0.9-4.5-2-6.9-0.5-2.1 5.1-4.2 5.6-0.6 0.5 1.6 4.1 1.6 5 1.5 0.5 1.8-5.5 6.3-4.2 8l6.5 0.8 3.1 1.5 5.9 0.8-0.3-4c-1-8.2-3.6-17.2-8.1-25.2z"/>
  <path class="cls-4" d="m0.4 73.7c0.1 3.7 0.5 7.4 1.5 11.4l136.6-1.1 1.1-10.3-7.2-2.6c-4-1.1-6 1-8.9 1.5-3.6 0.8-6.9-1.7-10.9-2.2-3.5-0.5-9.2-0.5-13.1 0.6-2.4 0.6-8.4 1.9-12 1.4-2.1-0.3-4.5-1.5-9.1-1.5-7 0-6.8 1.6-9.5 1.7l-3 0.3-7.4-0.9c-2-0.3-5.1-1.6-8.6-1l-9.4 1.9-3.6 1c-5.3 0.6-20.9-1.4-25-2.5-4.5-0.5-9.4 1.5-11.5 2.3z"/>
  <path class="cls-3" d="m1.9 85.1c4 17.6 13.5 29.3 24 40.1 12.1-3.3 18.7-3.8 21.7-4.7l13-4.9v2.4l9 0.9 55.8-5.5c5.5-6.5 11.1-17.9 13.1-29.4l-68.4 0.5h-26.6l-41.6 0.6z"/>
  <path class="cls-5" d="m19.5 118.4c1.9-1.5 7.2-4.7 9.1-5.5 1.9-0.3 18.1 1.1 24-1.5 1.5-0.7 2.3-3.5 2.3-4.7l-5.4-4.2-2.6-4.1-3.3-13.8-41.7 0.5c2.7 12 8 23.3 16.7 33.3h0.9z"/>
  <path class="cls-5" d="m22.4 121.9 3.5 3.2 9-2 6-2.7 3.1-3c-4.9-0.4-9.9-0.4-14 0.3l-7.6 4.2z"/>
  <path class="cls-5" d="m37.4 124.6 6.7 0.1c6.8-0.1 7.9-1.1 9-1.6l7.5-4.6-0.2-2.9-9.9 2.4-6.4 3-6.7 3.6z"/>
  <path class="cls-5" d="m82.5 105.1c-0.1-1.2 0.1-2.5 1.5-2.2l7.1 2.6c-2 1.1-6.2 1.1-8.6-0.4z"/>
  <path class="cls-5" d="m90.1 107.6c2.8-0.5 9-1.5 10.5 1 1.5 2.8-3.5 1.9-10.5-1z"/>
  <path class="cls-5" d="m103.9 105.1-4.8 0.6 7 1.4-2.2-2z"/>
  <path class="cls-5" d="m104 111.4 7.9 7c1.2 0.6 2.6 0.6 3.1 0l2.7-3c-1.6-1.7-3.2-3.9-6.3-4.5-2.7-0.8-6.9 0.2-7.4 0.5z"/>
  <path class="cls-5" d="m119.5 109.1 6.4 4.3 2.5-3.7c-1.8-1.1-5.8-1.1-8.9-0.6z"/>
  <path class="cls-5" d="m70.4 107.5 2.1-2.5c1-0.9 3.6 1.5 5 2.9l-2 0.2c-1.4 1-2.6 2-5.1-0.6z"/>
  <path class="cls-6" d="m123.6 106.4c-2.1 0-8 1.3-10.1 1.7-0.9 0.3-3.6-0.5-3.6-0.5-0.9-1.2-5-4-6.9-4.5-1.5-0.2-7 0.9-9.6 0.8-3.3-0.5-7.3-3.4-10.4-3.5-1.9 0.2-2.6 1.2-2.6 3.2h-1.4c-2.5-1.1-4.6-3.2-8.1-3.1 0.2-7 0.7-13.6-4.8-26.9-2-2.7-7.2-15.5-9.2-21.1-3.4-10.5-3.5-22.4-4.9-28.9l-4.1-20.2-6.3 2.1 3.8 22.6c1.6 11.8 6 28.5 7.1 33.5 2 6.5 6.1 13.8 8.6 19.3 1.3 2.8-0.1 8.2-2.2 10.1-1 0.6-1.8 1.4-2.4 2.9l-3.5-7.3-11.6-38.2c-3.5-11.8-5.9-17.5-9-38l-4.5 2.7c1.6 23.3 5.2 37 10 52l8 30 2 4 4 4.5 3.1 2.8c0 1.7-0.6 4.6-2.5 5.1-8.9 2.2-20.4 1.9-24 1.4l-7.5 3.7-2.4 1.9 3.3 3.5 8-4.1c4.2-1 10.2-1 14.1-0.5l-4.4 3.1-6.1 2.6c-2.5 0.5-5.1 0.9-7.6 2.1 11 8.4 25 14.7 44 14.7 22 0 40-7.2 56-26.3-1.9-0.7-4.3-2.7-6.3-4.5 2.5-0.4 7.1-0.4 8.8 0.8l1.7-2.8c-1.5-0.2-5.6-0.7-6.5-0.7zm-41-1.4c-0.2-1.1 0.3-2.3 1.4-2.1l7.1 2.6c-1.6 1.1-6.2 1-8.5-0.5zm7.5 2.6c4.3-0.7 9.4-1.2 10.5 1 2.3 3.4-4.2 1.9-10.5-1zm9-1.9 3.3-0.6 1.5 0.4 2.2 1.6-7-1.4zm-49.6 18.4-5.4 0.6h-6.7l6.7-3.7c3.5-1.3 7.4-3.6 13.3-4.9l3-1.1 0.1 3.4-9 5-2 0.7zm23-19.1c1.1-1 3.5 1.4 5 2.9l-2 0.2c-1.4 0.9-2.9 2-5.1-0.5l2.1-2.6zm42.5 13.4c-1 0.6-2.6 0.5-3.1 0l-8-7c0.5-0.4 5.2-1.3 7.5-0.5 3.1 0.5 4.5 2.7 6.3 4.5l-2.7 3z"/>
</svg>